<?xml version="1.0" standalone="no"?>
<!DOCTYPE svg PUBLIC "-//W3C//DTD SVG 20010904//EN"
 "http://www.w3.org/TR/2001/REC-SVG-20010904/DTD/svg10.dtd">
<svg version="1.0" xmlns="http://www.w3.org/2000/svg"
 width="700.000000pt" height="700.000000pt" viewBox="0 0 700.000000 700.000000"
 preserveAspectRatio="xMidYMid meet">
<metadata>
Created by potrace 1.14, written by Peter Selinger 2001-2017
</metadata>
<g transform="translate(0.000000,700.000000) scale(0.100000,-0.100000)"
fill="#000000" stroke="none">
<path d="M3403 6993 c15 -2 37 -2 50 0 12 2 0 4 -28 4 -27 0 -38 -2 -22 -4z"/>
<path d="M3520 6751 l0 -251 -170 0 c-183 0 -209 -5 -275 -55 -19 -15 -46 -51
-61 -81 -23 -46 -26 -64 -22 -127 4 -94 40 -157 112 -202 49 -30 50 -30 230
-35 l181 -5 3 -242 2 -243 -22 -5 c-13 -3 -626 -4 -1363 -3 l-1340 3 -41 22
c-23 12 -49 29 -57 37 -12 13 -27 -4 -116 -139 -242 -364 -418 -789 -506
-1220 -54 -266 -69 -422 -69 -725 -1 -292 7 -369 60 -640 54 -275 119 -494
209 -705 112 -261 315 -597 501 -830 113 -142 388 -417 529 -529 529 -421
1127 -671 1805 -752 176 -21 582 -24 745 -6 736 84 1383 362 1920 825 635 547
1051 1292 1180 2114 130 825 -45 1692 -483 2393 -269 430 -684 847 -1104 1109
-523 327 -1092 505 -1710 537 l-138 7 0 -252z m0 -6002 l0 -252 -101 6 c-80 4
-111 10 -154 31 -171 84 -180 327 -16 424 51 30 95 39 199 41 l72 1 0 -251z"/>
<path d="M3208 6983 c7 -3 16 -2 19 1 4 3 -2 6 -13 5 -11 0 -14 -3 -6 -6z"/>
<path d="M1560 6408 c-160 -106 -317 -229 -430 -337 l-75 -70 441 -1 c478 0
477 0 543 56 72 60 106 171 82 261 -16 57 -68 123 -121 153 -39 22 -61 26
-170 30 l-125 5 -145 -97z"/>
<path d="M924 5868 l-29 -33 33 29 c30 28 37 36 29 36 -2 0 -16 -15 -33 -32z"/>
<path d="M839 5773 c-13 -16 -12 -17 4 -4 16 13 21 21 13 21 -2 0 -10 -8 -17
-17z"/>
<path d="M749 5663 c-13 -16 -12 -17 4 -4 16 13 21 21 13 21 -2 0 -10 -8 -17
-17z"/>
</g>
</svg>
