<svg id='sky' version="1.1" baseProfile="full" xmlns="http://www.w3.org/2000/svg" width="1532" height="1291"><g fill="#FFF" fill-rule="evenodd" opacity=".202"><circle class='star' cx="1155.5" cy="369.5" r="3.5"/><circle class='star' cx="1145.5" cy="372.5" r="1.5"/><circle class='star' cx="1167.5" cy="329.5" r="1.5"/><circle class='star' cx="1148.5" cy="298.5" r="1.5"/><circle class='star' cx="1225.5" cy="169.5" r="1.5"/><circle class='star' cx="1222" cy="174" r="2"/><circle class='star' cx="1199.5" cy="156.5" r="1.5"/><circle class='star' cx="1192.5" cy="210.5" r="1.5"/><circle class='star' cx="1344" cy="192" r="2"/><circle class='star' cx="1336" cy="332" r="2"/><circle class='star' cx="1362.5" cy="350.5" r="1.5"/><circle class='star' cx="1164.5" cy="57.5" r="2.5"/><circle class='star' cx="1237.5" cy="64.5" r="1.5"/><circle class='star' cx="1164.5" cy="35.5" r="1.5"/><circle class='star' cx="1016.5" cy="76.5" r="1.5"/><circle class='star' cx="1017" cy="32" r="2"/><circle class='star' cx="966.5" cy="8.5" r="3.5"/><circle class='star' cx="957.5" cy="54.5" r="2.5"/><circle class='star' cx="860.5" cy="58.5" r="3.5"/><circle class='star' cx="921" cy="34" r="2"/><circle class='star' cx="965" cy="229" r="2"/><circle class='star' cx="934" cy="269" r="2"/><circle class='star' cx="885.5" cy="287.5" r="1.5"/><circle class='star' cx="874.5" cy="302.5" r="1.5"/><circle class='star' cx="963" cy="410" r="4"/><circle class='star' cx="852" cy="372" r="2"/><circle class='star' cx="805" cy="331" r="2"/><circle class='star' cx="812.5" cy="256.5" r="1"/><circle class='star' cx="766.5" cy="281.5" r="1.5"/><circle class='star' cx="1510" cy="17" r="2"/><circle class='star' cx="1516.5" cy="20.5" r="2.5"/><circle class='star' cx="1457" cy="200" r="2"/><circle class='star' cx="1431.5" cy="75.5" r="1.5"/><circle class='star' cx="1420.5" cy="89.5" r="1.5"/><circle class='star' cx="1357.5" cy="43.5" r="1"/><circle class='star' cx="1310.5" cy="70.5" r="1.5"/><circle class='star' cx="805.5" cy="474.5" r="2.5"/><circle class='star' cx="1490" cy="409" r="2"/><circle class='star' cx="1508.5" cy="356.5" r="1.5"/><circle class='star' cx="1072.5" cy="334.5" r="1.5"/><circle class='star' cx="1109" cy="417" r="2"/><circle class='star' cx="1207" cy="446" r="2"/><circle class='star' cx="1266" cy="431" r="2"/><circle class='star' cx="1234.5" cy="523.5" r="2.5"/><circle class='star' cx="1274" cy="505" r="2"/><circle class='star' cx="1403.5" cy="481.5" r="1.5"/><circle class='star' cx="1417" cy="525" r="2"/><circle class='star' cx="1251" cy="562" r="2"/><circle class='star' cx="1326" cy="578" r="2"/><circle class='star' cx="1417.5" cy="661.5" r="2.5"/><circle class='star' cx="1396" cy="696" r="2"/><circle class='star' cx="1427.5" cy="677.5" r="1.5"/><circle class='star' cx="1258.5" cy="643.5" r="1.5"/><circle class='star' cx="1343.5" cy="758.5" r="2.5"/><circle class='star' cx="1498" cy="673" r="2"/><circle class='star' cx="1529.5" cy="633.5" r="2.5"/><circle class='star' cx="1440.5" cy="575.5" r="1"/><circle class='star' cx="1306.5" cy="918.5" r="1.5"/><circle class='star' cx="1499" cy="911" r="2"/><circle class='star' cx="1467.5" cy="923.5" r="1.5"/><circle class='star' cx="1497" cy="1029" r="2"/><circle class='star' cx="1432.5" cy="1044.5" r="1.5"/><circle class='star' cx="824" cy="34" r="2"/><circle class='star' cx="602" cy="140" r="2"/><circle class='star' cx="640.5" cy="314.5" r="1.5"/><circle class='star' cx="606" cy="365" r="2"/><circle class='star' cx="466" cy="8" r="2"/><circle class='star' cx="576" cy="8" r="2"/><circle class='star' cx="552.5" cy="17.5" r="3.5"/><circle class='star' cx="464" cy="61" r="2"/><circle class='star' cx="218" cy="78" r="2"/><circle class='star' cx="419.5" cy="17.5" r="1.5"/><circle class='star' cx="461.5" cy="288.5" r="3.5"/><circle class='star' cx="440.5" cy="279.5" r="1.5"/><circle class='star' cx="386" cy="332" r="2"/><circle class='star' cx="404" cy="342" r="2"/><circle class='star' cx="378" cy="270" r="2"/><circle class='star' cx="362" cy="365" r="2"/><circle class='star' cx="373.5" cy="433.5" r="3.5"/><circle class='star' cx="511.5" cy="464.5" r="1.5"/><circle class='star' cx="627.5" cy="474.5" r="1.5"/><circle class='star' cx="644" cy="492" r="2"/><circle class='star' cx="117.5" cy="199.5" r="1.5"/><circle class='star' cx="118" cy="207" r="2"/><circle class='star' cx="89.5" cy="9.5" r="2.5"/><circle class='star' cx="110.5" cy="23.5" r="2.5"/><circle class='star' cx="196.5" cy=".5" r="1"/><circle class='star' cx="274" cy="12" r="2"/><circle class='star' cx="283" cy="60" r="2"/><circle class='star' cx="63.5" cy="127.5" r="2.5"/><circle class='star' cx="24" cy="60" r="2"/><circle class='star' cx="65.5" cy="35.5" r="1"/><circle class='star' cx="28" cy="163" r="2"/><circle class='star' cx="22.5" cy="204.5" r="2.5"/><circle class='star' cx="99" cy="268" r="4"/><circle class='star' cx="50.5" cy="228.5" r="1"/><circle class='star' cx="37.5" cy="257.5" r="1.5"/><circle class='star' cx="85" cy="291" r="2"/><circle class='star' cx="11.5" cy="47.5" r="1"/><circle class='star' cx="138" cy="426" r="4"/><circle class='star' cx="262.5" cy="486.5" r="3.5"/><circle class='star' cx="269.5" cy="452.5" r="1.5"/><circle class='star' cx="134.5" cy="547.5" r="2.5"/><circle class='star' cx="3.5" cy="560.5" r="3.5"/><circle class='star' cx="429.5" cy="573.5" r="1.5"/><circle class='star' cx="486" cy="564" r="2"/><circle class='star' cx="511" cy="597" r="2"/><circle class='star' cx="352.5" cy="635.5" r="3.5"/><circle class='star' cx="345" cy="709" r="2"/><circle class='star' cx="256.5" cy="776.5" r="3.5"/><circle class='star' cx="235.5" cy="811.5" r="3.5"/><circle class='star' cx="229.5" cy="664.5" r="1.5"/><circle class='star' cx="233.5" cy="746.5" r="1.5"/><circle class='star' cx="42.5" cy="811.5" r="2.5"/><circle class='star' cx="77.5" cy="980.5" r="2.5"/><circle class='star' cx="255" cy="938" r="2"/><circle class='star' cx="32.5" cy="938.5" r="3.5"/><circle class='star' cx="23.5" cy="1086.5" r="1.5"/><circle class='star' cx="108.5" cy="1238.5" r="3.5"/><circle class='star' cx="159.5" cy="1159.5" r="2.5"/><circle class='star' cx="90.5" cy="1192.5" r="1"/><circle class='star' cx="300.5" cy="1081.5" r="3.5"/><circle class='star' cx="388.5" cy="1154.5" r="3.5"/><circle class='star' cx="343" cy="1124" r="2"/><circle class='star' cx="467.5" cy="1072.5" r="1.5"/><circle class='star' cx="532.5" cy="1146.5" r="2.5"/><circle class='star' cx="555.5" cy="1153.5" r="2.5"/><circle class='star' cx="546.5" cy="1137.5" r="1"/><circle class='star' cx="318" cy="1199" r="4"/><circle class='star' cx="301.5" cy="1186.5" r="1.5"/><circle class='star' cx="408" cy="1230" r="2"/><circle class='star' cx="491.5" cy="1210.5" r="1"/><circle class='star' cx="565.5" cy="1178.5" r="1.5"/><circle class='star' cx="656.5" cy="1235.5" r="3.5"/><circle class='star' cx="709" cy="1285" r="2"/><circle class='star' cx="324.5" cy="1289.5" r="1.5"/><circle class='star' cx="332.5" cy="1278.5" r="1.5"/><circle class='star' cx="819.5" cy="1028.5" r="2.5"/><circle class='star' cx="875" cy="1157" r="2"/><circle class='star' cx="963.5" cy="1152.5" r="2.5"/><circle class='star' cx="962" cy="1145" r="2"/><circle class='star' cx="1069.5" cy="1181.5" r="11.5"/><circle class='star' cx="1003.5" cy="1152.5" r="2.5"/><circle class='star' cx="940.5" cy="1193.5" r="2.5"/><circle class='star' cx="907" cy="1068" r="2"/><circle class='star' cx="945" cy="925" r="2"/><circle class='star' cx="1204" cy="1186" r="2"/><circle class='star' cx="691.5" cy="848.5" r="1.5"/><circle class='star' cx="831" cy="1013" r="2"/><circle class='star' cx="833.5" cy="1082.5" r="2.5"/><circle class='star' cx="833" cy="1190" r="2"/><circle class='star' cx="1155.5" cy="1022.5" r="3.5"/><circle class='star' cx="908" cy="595" r="4"/><circle class='star' cx="1012.5" cy="528.5" r="3.5"/><circle class='star' cx="992.5" cy="547.5" r="1.5"/><circle class='star' cx="577" cy="960" r="2"/><circle class='star' cx="599.5" cy="939.5" r="1.5"/><circle class='star' cx="446" cy="959" r="2"/><circle class='star' cx="868" cy="534" r="2"/><circle class='star' cx="683.5" cy="574.5" r="1.5"/><circle class='star' cx="694.5" cy="526.5" r="1.5"/><circle class='star' cx="462.5" cy="659.5" r="3.5"/><circle class='star' cx="458.5" cy="738.5" r="1.5"/><circle class='star' cx="587" cy="764" r="2"/><circle class='star' cx="602.5" cy="690.5" r="2.5"/><circle class='star' cx="529.5" cy="669.5" r="1.5"/><circle class='star' cx="900.5" cy="851.5" r="3.5"/><circle class='star' cx="926.5" cy="796.5" r="3.5"/><circle class='star' cx="816" cy="823" r="2"/><circle class='star' cx="1003" cy="672" r="2"/></g></svg>